<svg xmlns="http://www.w3.org/2000/svg" width="512" height="512" viewBox="0 0 512 512">
  <rect width="512" height="512" rx="114" fill="#0d0e11"/>
  <g transform="translate(74 191) scale(3.71)" fill="#ccff00">
    <path d="M31.6025 25.9707L15.8105 32.9307H0L18.7158 25.9629L17.4873 23.625H17.4531C16.6775 24.4861 15.5029 25.1665 13.9287 25.665C12.3774 26.1409 10.6203 26.3789 8.6582 26.3789C5.9205 26.3789 3.7874 25.8915 2.2588 24.917C0.753 23.9426 0 22.6049 0 20.9053C0.0001 19.2286 0.6622 17.9367 1.9854 17.0303C3.3086 16.124 5.2819 15.5462 7.9053 15.2969L17.0059 14.5312C16.9844 13.5323 16.587 12.7905 15.8105 12.3057C15.0349 11.7846 13.8147 11.5235 12.1494 11.5234C10.6209 11.5234 9.3772 11.7394 8.4189 12.1699C7.4607 12.6006 6.7986 13.2463 6.4336 14.1074L0.6162 13.0195C1.1866 11.2746 2.4757 9.9379 4.4834 9.0088C6.5139 8.0797 9.1035 7.6143 12.252 7.6143C15.8337 7.6143 18.5258 8.2717 20.3281 9.5859C22.1532 10.8775 23.0663 12.8152 23.0664 15.3984V22.707L23.8428 24.0537L25.5791 23.4082V7.6143H31.6025V25.9707ZM85.063 7.5381C87.687 7.5381 89.958 7.9239 91.874 8.6943C93.813 9.4648 95.319 10.553 96.392 11.958C97.464 13.363 98 15.006 98 16.8867C98 18.7676 97.464 20.422 96.392 21.8496C95.319 23.2546 93.813 24.3419 91.874 25.1123C89.958 25.8829 87.687 26.2686 85.063 26.2686C82.44 26.2685 80.159 25.8828 78.2197 25.1123C76.2806 24.3419 74.7745 23.2546 73.7021 21.8496C72.6527 20.422 72.128 18.7676 72.1279 16.8867C72.1279 15.006 72.6528 13.363 73.7021 11.958C74.7745 10.553 76.2805 9.4648 78.2197 8.6943C80.159 7.924 82.44 7.5381 85.063 7.5381ZM38.6104 10.6738C39.4089 9.6995 40.4925 8.9519 41.8613 8.4307C43.2302 7.8868 44.7135 7.6143 46.3105 7.6143C48.0671 7.6143 49.5497 7.8754 50.7588 8.3965C51.9907 8.895 52.9608 9.6427 53.668 10.6396H53.7021C54.5919 9.6653 55.756 8.9177 57.1934 8.3965C58.6534 7.8753 60.2051 7.6143 61.8477 7.6143C63.8096 7.6143 65.4635 7.9319 66.8096 8.5664C68.1556 9.1782 69.171 10.0958 69.8555 11.3193C70.5399 12.5204 70.8818 14.0165 70.8818 15.8066V25.9707H64.8594V17.6768C64.8594 15.9771 64.471 14.7077 63.6953 13.8691C62.9197 13.0082 61.7563 12.5772 60.2051 12.5771C58.4713 12.5771 57.1593 13.0196 56.2695 13.9033C55.3797 14.7871 54.9346 16.0902 54.9346 17.8125V25.9707H48.877V17.6768C48.877 15.9772 48.4895 14.7077 47.7139 13.8691C46.9382 13.0081 45.7741 12.5771 44.2227 12.5771C42.5344 12.5772 41.2338 13.0311 40.3213 13.9375C39.4089 14.8213 38.9521 16.113 38.9521 17.8125V25.9707H32.8955V7.6143H38.6104V10.6738ZM9.0693 18.5605C7.9743 18.6965 7.2099 18.9231 6.7764 19.2402C6.3429 19.5575 6.126 20.0219 6.126 20.6338C6.126 21.3136 6.4225 21.8347 7.0156 22.1973C7.6088 22.5372 8.5333 22.707 9.7881 22.707C11.2707 22.707 12.5481 22.5371 13.6201 22.1973C14.6925 21.8573 15.526 21.37 16.1191 20.7354C16.7121 20.1009 17.0088 19.3302 17.0088 18.4238V17.6748L9.0693 18.5605ZM85.063 11.8896C83.718 11.8897 82.531 12.0932 81.505 12.501C80.501 12.9089 79.7253 13.4991 79.1777 14.2695C78.6303 15.0173 78.3564 15.8898 78.3564 16.8867C78.3565 17.9064 78.6302 18.7903 79.1777 19.5381C79.7253 20.2858 80.501 20.8636 81.505 21.2715C82.531 21.6793 83.718 21.8837 85.063 21.8838C86.432 21.8838 87.619 21.6794 88.623 21.2715C89.627 20.8636 90.403 20.2859 90.95 19.5381C91.498 18.7903 91.771 17.9064 91.771 16.8867C91.771 15.8898 91.498 15.0173 90.95 14.2695C90.403 13.4991 89.627 12.9089 88.623 12.501C87.619 12.0931 86.432 11.8896 85.063 11.8896ZM28.625 0C29.6061 0 30.4045 0.3176 31.0205 0.9521C31.6594 1.564 31.9785 2.3231 31.9785 3.2295C31.9785 4.1133 31.6593 4.8723 31.0205 5.5068C30.4045 6.1414 29.6061 6.459 28.625 6.459C27.644 6.459 26.8342 6.1414 26.1953 5.5068C25.5793 4.8723 25.2715 4.1133 25.2715 3.2295C25.2715 2.3231 25.5793 1.564 26.1953 0.9521C26.8342 0.3176 27.644 0 28.625 0Z"/>
  </g>
</svg>
